PathFileType	4	(X/Y/Z)	Patient4_TMGait_0pt7_02_right_10.trc.trc
DataRate	CameraRate	NumFrames	NumMarkers	Units	OrigDataRate	OrigDataStartFrame	OrigNumFrames
84.337349397590	84.337349397590	6	33	mm	84.337349397590	124	       141
Frame#	Time	Sacral			L.Shoulder			Chest			R.Shoulder			Neck			R.ASIS			L.ASIS			R.Thigh.Superior			R.Thigh.Lateral			R.Thigh.Inferior			R.Patella			L.Thigh.Superior			L.Thigh.Lateral			L.Thigh.Inferior			L.Patella			L.Shank.Superior			L.Shank.Lateral			L.Shank.Inferior			R.Shank.Superior			R.Shank.Lateral			R.Shank.Inferior			R.Heel			R.Midfoot.Superior			R.Midfoot.Lateral			R.Toe			L.Heel			L.Midfoot.Lateral			L.Midfoot.Superior			L.Toe			L.Elbow			L.Wrist			R.Elbow			R.Wrist			
		X1	Y1	Z1	X2	Y2	Z2	X3	Y3	Z3	X4	Y4	Z4	X5	Y5	Z5	X6	Y6	Z6	X7	Y7	Z7	X8	Y8	Z8	X9	Y9	Z9	X10	Y10	Z10	X11	Y11	Z11	X12	Y12	Z12	X13	Y13	Z13	X14	Y14	Z14	X15	Y15	Z15	X16	Y16	Z16	X17	Y17	Z17	X18	Y18	Z18	X19	Y19	Z19	X20	Y20	Z20	X21	Y21	Z21	X22	Y22	Z22	X23	Y23	Z23	X24	Y24	Z24	X25	Y25	Z25	X26	Y26	Z26	X27	Y27	Z27	X28	Y28	Z28	X29	Y29	Z29	X30	Y30	Z30	X31	Y31	Z31	X32	Y32	Z32	X33	Y33	Z33	

124	11.928428571429	765.557025274984	993.260956021228	456.122684330388	964.584367344960	1418.446264111341	280.263848398712	1057.879983071455	1342.549844896466	444.640930810283	970.129302711258	1422.804679927102	613.372383575459	963.492511503156	1476.704519901596	432.451578197728	988.476593098548	922.400244994956	580.272286451685	982.375748239778	946.128772890301	304.784569428409	1059.058634172809	750.577749740207	558.201609557597	1006.149409638521	627.827652778761	626.907598181400	1100.239397469452	592.200172248334	552.084865631252	1130.231970216891	510.599314451012	566.092334349857	974.564123664398	719.778348494255	331.452474072767	851.630803760693	632.418760401624	268.043559908942	904.653099684773	535.010609841888	332.380166915912	885.993798996947	468.743628390136	341.940399214229	850.001189039829	404.738755764907	333.575542918900	743.500015599040	305.191827224656	282.201097959338	775.241572361265	187.910724040410	355.644842602002	1116.885299329163	421.855203128962	574.786562715780	1063.180645966106	305.981406264931	632.606135714413	1137.703372688812	223.217939915265	583.339040386854	1049.349714512550	41.771491463277	549.851159246719	1212.761586667947	109.731064338787	593.082465440234	1131.709374575181	38.005160930414	624.213799669732	1335.614635240892	68.891759530548	620.607242480680	630.753453677086	39.546604018281	395.985358672281	707.084252878387	35.056450646898	317.954017228815	790.265340449922	95.115844900702	346.531516307748	919.315383711677	40.429998083005	321.982405304550	1019.536264942333	1097.163402427997	126.710189140847	1246.418990170921	1173.378303276452	203.318126094091	810.192167815508	1116.746728582661	720.259351331044	759.977966502819	858.563288632674	712.205242109417	
125	11.940285714286	766.887606008531	991.730827469547	458.999207403971	964.342155199916	1417.245988905665	283.154128821943	1058.112273939260	1341.908657857876	447.575008988225	969.798795758657	1421.825819692127	616.294387810593	963.051292090723	1475.593966752324	435.421136436317	990.508385170492	921.043149103296	582.727797863576	983.654327982980	945.247869343647	307.410890491032	1061.682342663458	749.142593162223	559.988436248193	1007.223916516020	626.112261963643	626.985182972492	1101.408825369814	590.944506529562	552.393227805326	1130.097702797638	508.362917746128	565.138865039609	975.157271242514	718.133989932994	333.267362068336	851.627795847654	631.156615857049	270.221896217374	904.617919382486	533.305824715796	334.242583161113	885.677845858362	466.273055829233	343.559163277387	848.087047383708	402.746862510962	335.103147784769	739.454437443497	305.496347331088	283.566641919183	768.959777719930	187.322335371149	356.254667372614	1115.903565146424	418.929565960164	573.811177344659	1060.747606572654	303.774984491008	631.647661913004	1133.210703782323	220.014503186669	581.544226195053	1040.697918415245	41.201089624830	548.447984451053	1205.523151441638	106.124713195246	590.749282834454	1122.975485542817	36.895622483179	622.964974330973	1327.712565334947	63.019987451549	618.617552637307	622.334101484496	40.362434296636	395.849588560939	698.738938310429	35.272973929375	317.975142754765	782.309362020029	95.096125741640	346.505841721057	911.010556966162	40.296439242234	321.918181598654	1016.470777498195	1095.285938523244	129.271740139285	1240.039595466444	1177.498219432280	209.015934300394	806.522287153932	1117.996327467061	722.614214395483	754.304351745607	860.027547150696	714.096578916961	
126	11.952142857143	768.047004178485	990.520627709647	461.891803556513	964.373835430268	1416.261194984955	286.121230987649	1058.472651248380	1341.396783822025	450.622465282237	969.657392966218	1421.083751519032	619.308546621702	962.860094502166	1474.751878174657	438.473793169513	992.391772606455	920.089641772764	585.294724660340	984.757559253896	944.546809578173	310.107340615558	1064.454443934576	748.495178819452	561.481917481935	1009.010017850477	625.240135837501	627.131989617955	1103.019474421570	590.477862778141	552.518866735473	1130.484222618563	506.748375141226	564.224975032229	976.241993630931	716.818831941819	335.186965110808	852.476369472542	629.745260985343	272.618265260850	905.928014163758	531.588441684752	336.221285455022	886.866559043384	463.553175818710	345.179213508530	847.319434603583	400.572425834036	336.711208986452	736.273412642166	306.059984117454	285.083708950905	763.200405835000	186.907676483128	356.872627356468	1115.283718349516	416.616226269246	572.979189152271	1058.701251321663	302.331055974032	631.208432859651	1128.679852247504	217.382009924077	580.029832704325	1031.627174112503	40.969892796687	547.522701785086	1197.811703501052	103.214451600570	588.865867795994	1113.869755078622	36.242423405843	622.176882719665	1319.382609628984	58.073569502778	617.050961350608	613.993087009126	41.929629385046	395.675603544107	690.421715745997	35.847526812277	317.985208517154	774.602911632057	95.142884080867	346.408730238282	902.657931022735	40.066726525747	321.867340915429	1012.695990499546	1093.329293085441	132.099760055756	1233.545019928183	1179.982911321192	214.616042523345	804.194354690159	1118.734193088633	725.148159510704	750.514578813197	860.892784523104	716.196847803751	
127	11.964000000000	769.023871566659	989.660549039436	464.785343965384	964.641498680933	1415.572573096575	289.154102318989	1058.931858211830	1341.056733375876	453.745703402963	969.724769703125	1420.616326961056	622.391253245365	962.919128640651	1474.226085250697	441.594636436901	994.091689939495	919.581300460645	587.949939095283	985.639381287989	944.082724920687	312.834774823193	1067.200507056652	748.573366220684	562.692283706496	1011.314957795208	625.168574808804	627.454810453241	1104.847839575963	590.665522576386	552.572542746723	1131.151799353202	505.698635679849	563.538013322504	977.828302962330	715.900686023679	337.202185146639	854.249100123876	628.212123562961	275.183893536285	908.706794959329	529.908170013186	338.249100625286	889.688511146811	460.640104110855	346.694371884850	847.806315368510	398.284357725175	338.320958808329	734.067994156949	306.992832420069	286.708622357572	758.081501457855	186.786825943753	357.456087596357	1114.846011772202	414.908920238846	572.422631188990	1056.911961746365	301.580624407903	631.321915987307	1124.147163586956	215.351705341115	578.896096794837	1022.486495950473	40.976648405006	547.047992636353	1189.867868585566	101.060528433115	587.502893876524	1104.730582857506	35.954656148503	621.816806989284	1310.899908237414	54.259801753408	615.951356731170	605.824199421864	44.516557013042	395.470837285877	682.179682687337	36.953646407810	317.986146360212	767.235634739852	95.311587480557	346.226352335870	894.240525003645	39.711263537883	321.844431843342	1008.176909116279	1091.417661902816	135.221478016731	1227.063931892885	1180.866996655949	220.121326286354	803.247842077733	1118.927359655136	727.835960634054	748.692390811014	861.133868478679	718.459561043048	
128	11.975857142857	769.826370910378	989.155346776571	467.684524813237	965.071791997146	1415.245258627246	292.239476688109	1059.447059313253	1340.929206438507	456.900351687598	969.997283127973	1420.446168656769	625.515245830475	963.195702144312	1474.043433793850	444.764691363036	995.591972849601	919.529707182147	590.664941635527	986.269327238209	943.899579794534	315.562423263594	1069.736143326610	749.228009049944	563.688928357927	1013.845357045177	625.766236980723	628.040015697376	1106.621358521063	591.305416723765	552.687717905926	1131.799841042983	505.095949003072	563.236195316208	979.918326308786	715.426289556807	339.292229180428	857.002345382861	626.595863991245	277.853399085009	913.033823504499	528.324682831120	340.247603367876	894.218995116866	457.618962336513	348.000604682300	849.635833121553	395.971188095813	339.851455547064	732.951590729067	308.405565820043	288.388113616689	753.734308721865	187.092780622779	357.966472421116	1114.343679334495	413.732311069221	572.236709478926	1055.141574310202	301.386112224348	631.940879181617	1119.559877769779	213.881860344641	578.194225903052	1013.492545925354	41.125630733453	546.953769450048	1181.844185347581	99.628559513196	586.661026129341	1095.761663810526	35.925763373065	621.813766577078	1302.435360959315	51.608643090959	615.302757465630	597.961027283920	48.395513368291	395.251842855239	674.090946373231	38.791063995195	317.985554946059	760.314289813899	95.681075258601	345.954652338569	885.757548461330	39.204160631955	321.862874122734	1002.887289409082	1089.679701594771	138.656663439703	1220.688610812668	1180.188714639210	225.527233584045	803.673198653244	1118.580824094019	730.658801107513	748.898040048276	860.757015940256	720.854561947052	
129	11.987714285714	770.470858149407	988.988401778509	470.610228867199	965.560493818504	1415.320464910670	295.362687338345	1059.966494222158	1341.047682682625	460.037764404752	970.450887556267	1420.575834647367	628.652374762368	963.627791263703	1474.206800269465	447.963399543553	996.890483236547	919.916479704681	593.403641356109	986.630179211757	944.017680854176	318.268728108911	1071.881243108477	750.237964941835	564.600343290486	1016.226454461912	626.832158699929	628.942411717039	1108.042062066113	592.162220811736	553.002062903015	1132.100584379758	504.789665167793	563.414717457054	982.507257182598	715.421298747306	341.426199815425	860.773371763259	624.945903175720	280.551251309706	918.935816143303	526.907841525801	342.140014358519	900.473286551184	454.601395820697	349.017899562006	852.874066950393	393.735692931319	341.235266186652	733.040696311190	310.398217546739	290.067533047246	750.300514696354	187.962493296359	358.379803026236	1113.498363972437	412.967246795837	572.465708155293	1053.100170225308	301.571058584315	632.956623091225	1114.810817633797	212.879212291120	577.924250417145	1004.746205249300	41.335391507074	547.146088682186	1173.819034893242	98.817646317341	586.284166434365	1087.051259266782	36.051611556043	622.076114071445	1294.072123866022	50.010120949597	615.042845620711	590.579553401737	53.817344223207	395.047527718522	666.271883624051	41.575999140161	317.998783227443	753.962686271129	96.356099014235	345.604566800719	877.236569506015	38.529204911574	321.930727671855	996.816714155911	1088.234181069889	142.414736519077	1214.467527737928	1177.973416264918	230.816618097440	805.418591572850	1117.732065644416	733.605810561071	751.162489699774	859.796997568383	723.367306277792	
